<?xml version="1.0" standalone="no"?>
<!DOCTYPE svg PUBLIC "-//W3C//DTD SVG 20010904//EN"
 "http://www.w3.org/TR/2001/REC-SVG-20010904/DTD/svg10.dtd">
<svg version="1.0" xmlns="http://www.w3.org/2000/svg"
 width="2138.000000pt" height="2138.000000pt" viewBox="0 0 2138.000000 2138.000000"
 preserveAspectRatio="xMidYMid meet">

<g transform="translate(0.000000,2138.000000) scale(0.100000,-0.100000)"
fill="#000000" stroke="none">
<path d="M540 18674 c-81 -17 -209 -80 -275 -134 -111 -93 -202 -240 -230
-375 -13 -61 -15 -973 -15 -7160 0 -6294 2 -7101 15 -7185 31 -190 108 -385
216 -547 67 -101 252 -285 353 -353 162 -108 355 -184 551 -215 137 -22 19574
-22 19680 0 39 8 106 32 150 54 140 70 236 165 306 306 69 140 69 132 69 960
0 829 1 815 -71 964 -34 71 -57 101 -128 171 -92 91 -158 132 -276 172 l-70
23 -9062 3 -9063 2 0 6366 c0 5781 -1 6372 -16 6437 -9 40 -34 110 -56 157
-57 119 -176 239 -298 299 -147 72 -134 71 -970 70 -598 0 -758 -3 -810 -15z"/>
<path d="M14296 17349 c-381 -56 -691 -318 -809 -684 -41 -126 -51 -191 -50
-325 1 -100 6 -145 27 -225 30 -116 87 -241 153 -334 27 -39 332 -353 752
-774 l706 -707 -1528 -1528 -1527 -1527 -1582 1581 c-1719 1717 -1633 1636
-1849 1738 -193 92 -386 131 -609 123 -212 -7 -387 -51 -566 -143 -187 -95
-167 -77 -1760 -1669 l-1512 -1510 -46 -95 c-26 -52 -53 -126 -61 -165 -40
-193 5 -389 128 -550 25 -33 274 -287 554 -565 359 -357 525 -515 565 -538
217 -127 478 -128 695 -1 44 25 306 281 1053 1026 l995 993 1560 -1561 c1002
-1003 1590 -1583 1643 -1623 151 -115 329 -194 535 -238 145 -31 380 -31 524
0 181 39 331 102 486 204 82 54 311 280 2142 2109 l2050 2049 710 -709 c770
-768 798 -792 971 -859 158 -61 195 -67 379 -66 154 1 178 3 260 27 322 96
571 321 677 610 68 188 63 -44 63 2807 l0 2575 -23 75 c-59 187 -177 332 -334
409 -168 83 118 75 -2753 77 -1408 1 -2587 -2 -2619 -7z"/>
</g>
</svg>
